<?xml version="1.0" encoding="UTF-8"?>
<svg id="Actor" xmlns="http://www.w3.org/2000/svg" version="1.1" viewBox="0 0 800 800">
  <!-- Generator: Adobe Illustrator 30.1.0, SVG Export Plug-In . SVG Version: 2.1.1 Build 136)  -->
  <defs>
    <style>
      .st0 {
        fill: #931e1d;
      }
    </style>
  </defs>
  <path class="st0" d="M414.75,144.69c0-53.76,43.57-97.33,97.33-97.33s97.33,43.57,97.33,97.33-43.57,97.33-97.33,97.33c-53.76,0-97.33-43.57-97.33-97.33ZM122.67,488.22h0c-53.02,0-96-42.98-96-96v-128.22h192v128.22c0,53.02-42.98,96-96,96ZM178.67,408h-112c.24.85.51,1.68.77,2.51,7.68,23.01,29.68,40.16,55.23,40.16s47.39-17.01,55.15-39.92c.29-.91.59-1.81.85-2.75ZM141.36,349.33h47.95c-.16-13.09-10.83-23.68-23.97-23.68s-23.81,10.59-23.97,23.68ZM56.03,349.33h47.95c-.16-13.09-10.83-23.68-23.97-23.68s-23.81,10.59-23.97,23.68ZM736,752h0c23.57,0,42.67-19.1,42.67-42.67v-322.67c0-67.75-54.92-122.67-122.67-122.67h-282.67c-67.75,0-122.67,54.92-122.67,122.67v133.33H65.21c-22.97,0-42.74,17.66-43.82,40.61-1.15,24.5,18.37,44.73,42.62,44.73h219.33c29.09,0,52.67-23.58,52.67-52.67v-134h32v333.33h293.33v-333.33h32v290.67c0,23.57,19.1,42.67,42.67,42.67Z"/>
</svg>